# xmcd
#
# Track frame offsets:
#	150
#	25812
#	51473
#	75638
#	101689
#	122550
#	145881
#	169321
#	190015
#	210979
#	232697
#	258474
#
# Disc length: 3707 seconds
#
# Revision: 4
# Processed by: cddbd v1.5.2PL0 Copyright (c) Steve Scherf et al.
# Submitted via: EZCDAudioConverter 7.1.7.1
#
DISCID=9b0e790c
DTITLE=范媛媛 - 有多少爱可以重来 Dts-Es5.1
DYEAR=2010
DGENRE=
TTITLE0=有多少爱可以重来
TTITLE1=东风破
TTITLE2=2002年的第一场雪
TTITLE3=把悲伤留给自己
TTITLE4=四季似歌
TTITLE5=你怎么舍得我难过
TTITLE6=小薇
TTITLE7=用心良苦
TTITLE8=我是不是你最疼爱的人
TTITLE9=心太软
TTITLE10=黄昏
TTITLE11=再回首
EXTD=
EXTT0=
EXTT1=
EXTT2=
EXTT3=
EXTT4=
EXTT5=
EXTT6=
EXTT7=
EXTT8=
EXTT9=
EXTT10=
EXTT11=
PLAYORDER=
